<?xml version="1.0" encoding="UTF-8" standalone="no"?>
<svg
   xmlns:dc="http://purl.org/dc/elements/1.1/"
   xmlns:cc="http://creativecommons.org/ns#"
   xmlns:rdf="http://www.w3.org/1999/02/22-rdf-syntax-ns#"
   xmlns:svg="http://www.w3.org/2000/svg"
   xmlns="http://www.w3.org/2000/svg"
   xmlns:sodipodi="http://sodipodi.sourceforge.net/DTD/sodipodi-0.dtd"
   xmlns:inkscape="http://www.inkscape.org/namespaces/inkscape"
   version="1.0"
   width="861.88586"
   height="505.55099"
   viewBox="0 0 8618.8586 5055.5099"
   preserveAspectRatio="xMidYMid meet"
   id="svg34"
   sodipodi:docname="129_20201210125952.svg"
   inkscape:version="1.0.1 (3bc2e813f5, 2020-09-07)">
  <metadata
     id="metadata40">
    <rdf:RDF>
      <cc:Work
         rdf:about="">
        <dc:format>image/svg+xml</dc:format>
        <dc:type
           rdf:resource="http://purl.org/dc/dcmitype/StillImage" />
        <dc:title></dc:title>
      </cc:Work>
    </rdf:RDF>
  </metadata>
  <defs
     id="defs38" />
  <sodipodi:namedview
     pagecolor="#ffffff"
     bordercolor="#666666"
     borderopacity="1"
     objecttolerance="10"
     gridtolerance="10"
     guidetolerance="10"
     inkscape:pageopacity="0"
     inkscape:pageshadow="2"
     inkscape:window-width="1920"
     inkscape:window-height="1031"
     id="namedview36"
     showgrid="false"
     fit-margin-top="0"
     fit-margin-left="0"
     fit-margin-right="0"
     fit-margin-bottom="0"
     inkscape:zoom="1.0373494"
     inkscape:cx="431.08444"
     inkscape:cy="144.62056"
     inkscape:window-x="0"
     inkscape:window-y="0"
     inkscape:window-maximized="1"
     inkscape:current-layer="svg34" />
  <g
     id="layer101"
     fill="#000000"
     stroke="none"
     transform="translate(-1689.1556,-1547)">
    <path
       d="m 8826,6574 c -24,-158 -58,-668 -56,-839 2,-126 5,-1114 5,-1405 0,-303 -14,-668 -29,-760 -30,-186 -137,-463 -229,-592 -56,-78 -176,-220 -162,-191 6,14 -9,19 -210,63 -77,17 -217,49 -311,70 -94,22 -175,40 -180,40 -5,-1 38,-20 96,-44 218,-89 385,-189 517,-310 l 71,-66 31,-127 c 68,-282 125,-585 156,-817 l 7,-49 13,29 c 7,16 28,74 46,129 43,135 79,225 151,380 237,508 541,870 929,1110 l 68,42 -120,112 c -180,170 -308,331 -368,463 -33,74 -96,243 -137,370 l -38,117 50,72 c 157,229 484,572 699,736 275,210 307,236 326,266 35,57 170,509 156,523 -2,2 -42,-76 -90,-174 -98,-200 -132,-245 -265,-348 -279,-217 -651,-550 -838,-749 -60,-63 -114,-115 -122,-115 -22,0 -50,80 -61,177 -12,96 -26,575 -36,1228 -5,310 -10,418 -26,529 -22,157 -33,191 -43,130 z m 194,-2513 c 58,-196 254,-546 416,-746 34,-42 44,-60 34,-63 -8,-3 -52,-24 -99,-48 -167,-84 -302,-222 -482,-492 -106,-159 -191,-314 -239,-437 -13,-33 -26,-63 -29,-67 -3,-4 -26,71 -50,167 l -45,174 54,113 c 29,62 72,163 96,224 127,330 267,892 280,1129 6,103 18,146 34,128 4,-4 17,-41 30,-82 z"
       id="path2" />
    <path
       d="m 4721,6505 c -1,-5 -6,-75 -11,-155 -6,-80 -17,-186 -25,-236 l -16,-91 40,-179 c 22,-99 54,-224 71,-277 l 31,-98 -4,-229 -4,-228 -32,-43 c -52,-70 -120,-222 -142,-317 -12,-48 -25,-107 -31,-132 -39,-164 -61,-426 -55,-640 6,-193 17,-263 56,-338 24,-48 67,-75 81,-53 21,35 59,216 65,311 3,58 15,186 26,285 41,376 60,477 125,679 19,60 36,128 38,151 2,48 17,73 84,149 26,29 63,70 82,92 62,69 108,101 240,164 35,17 68,37 73,43 5,7 6,2 2,-13 -12,-47 -44,-305 -55,-445 -20,-265 -57,-1447 -46,-1489 4,-16 9,-27 11,-24 2,2 18,55 35,118 28,102 33,143 46,360 17,294 38,500 69,675 13,72 29,184 35,250 6,66 22,170 35,230 12,61 27,135 33,165 5,30 29,127 52,215 l 42,160 -21,90 c -32,135 -50,257 -58,384 l -6,113 -39,-92 c -23,-57 -38,-108 -38,-134 0,-73 -20,-206 -40,-259 -10,-29 -21,-90 -25,-137 -3,-47 -10,-101 -15,-120 -5,-23 -6,-8 -2,44 l 5,79 -44,-48 c -38,-41 -283,-214 -316,-223 -15,-4 -133,111 -133,130 0,7 -20,78 -45,156 -65,202 -92,348 -159,862 -7,58 -14,101 -15,95 z"
       id="path4" />
    <path
       d="m 7557,6431 c -26,-64 -54,-185 -86,-371 l -30,-175 -1,-627 c 0,-345 -3,-633 -5,-640 -3,-7 -10,-269 -15,-583 -6,-313 -14,-613 -19,-665 -17,-175 -24,-390 -14,-390 24,0 63,81 73,149 5,38 21,123 35,188 14,65 30,178 35,251 14,197 40,411 56,461 19,59 18,222 -1,286 -9,29 -20,127 -25,235 -6,102 -15,263 -20,357 -6,95 -10,417 -10,715 0,548 2,586 40,781 14,71 8,82 -13,28 z"
       id="path6" />
    <path
       d="m 3991,6426 c -1,-35 69,-302 115,-436 25,-74 52,-156 60,-182 l 15,-46 -89,-179 c -148,-295 -210,-491 -271,-858 -31,-188 -76,-529 -87,-675 l -7,-85 -17,37 c -9,21 -19,41 -23,44 -14,14 -114,-76 -282,-255 -98,-104 -183,-192 -190,-195 -9,-3 -22,24 -40,82 -35,113 -101,243 -211,417 -229,362 -448,647 -686,891 -65,66 -118,125 -118,130 0,5 23,41 51,79 241,328 470,752 573,1059 28,85 32,102 14,71 -114,-199 -636,-720 -983,-980 -62,-47 -117,-91 -124,-99 -10,-11 18,-43 150,-172 89,-88 200,-204 248,-259 569,-657 941,-1523 1046,-2435 14,-121 35,-403 35,-485 l 1,-40 14,41 c 26,73 66,255 90,409 l 23,150 69,63 c 122,113 321,233 498,302 63,24 89,40 66,40 -12,0 -569,-123 -616,-136 -19,-5 -22,5 -49,153 -16,87 -33,206 -39,264 l -11,106 69,99 c 119,173 188,248 348,383 15,13 20,12 41,-8 37,-35 84,-148 105,-252 l 19,-94 1,311 c 1,320 11,481 36,569 7,28 17,72 20,98 4,26 10,46 12,43 3,-3 0,-41 -8,-86 -12,-76 -12,-83 11,-148 72,-207 197,-430 265,-472 58,-36 130,-26 155,21 6,11 18,60 25,109 29,173 160,522 244,643 50,73 50,108 1,238 -61,164 -100,340 -107,486 -4,91 -9,123 -20,127 -19,8 -27,-19 -52,-159 l -21,-119 29,-41 c 49,-69 72,-124 86,-208 8,-45 22,-112 31,-149 l 16,-66 -41,-54 c -83,-111 -130,-244 -157,-450 -14,-112 -27,-141 -63,-151 -30,-8 -79,20 -142,80 -98,93 -98,93 -124,349 l -24,226 24,81 c 63,215 64,217 146,274 41,28 93,61 116,73 34,17 43,28 47,53 3,18 12,79 21,137 9,58 18,113 21,123 4,14 -1,17 -33,17 -30,0 -45,-7 -65,-27 -40,-44 -157,-202 -175,-236 -9,-18 -29,-51 -44,-74 -33,-48 -76,-195 -125,-426 -19,-89 -31,-139 -28,-112 16,136 80,406 136,570 76,223 249,610 319,711 18,26 32,52 32,59 0,6 -31,58 -70,115 -100,151 -162,257 -237,405 -36,72 -65,122 -65,111 z"
       id="path8" />
    <path
       d="m 6136,6348 c -83,-96 -141,-243 -152,-379 -5,-78 -25,-189 -73,-419 -11,-52 -30,-158 -41,-235 -43,-285 -66,-342 -166,-411 -61,-42 -83,-40 -108,12 -9,20 -19,35 -21,32 -2,-2 -12,-60 -21,-129 l -16,-125 50,-99 c 27,-55 79,-144 115,-198 78,-116 95,-159 147,-369 22,-88 49,-180 60,-206 43,-96 42,-108 -10,-295 -46,-167 -68,-265 -50,-222 113,270 123,302 139,422 18,140 -18,427 -73,592 -23,66 -81,174 -110,204 -49,50 -123,150 -142,192 -33,69 -31,77 11,69 70,-13 185,67 233,163 20,39 32,86 77,299 24,113 26,140 26,394 0,334 14,412 115,653 18,42 31,77 30,77 -1,0 -10,-10 -20,-22 z"
       id="path10" />
    <path
       d="m 8130,6321 c 0,-5 32,-85 71,-176 58,-136 78,-174 110,-202 90,-81 187,-240 214,-351 9,-40 13,-118 13,-265 l -1,-208 -23,46 c -37,73 -73,111 -176,190 -53,41 -133,114 -178,162 -122,131 -69,48 135,-212 98,-126 181,-252 200,-305 14,-40 13,-44 -39,-193 -69,-199 -87,-237 -145,-316 -81,-109 -121,-242 -121,-401 v -97 l 54,15 54,15 7,61 c 20,189 63,348 95,353 16,3 89,-115 109,-177 7,-19 23,-55 36,-80 l 24,-45 -6,44 c -3,24 -16,76 -29,115 -31,89 -54,219 -54,300 0,88 25,229 56,316 18,50 28,98 29,145 1,39 5,178 10,310 l 8,240 -41,110 c -22,61 -51,142 -63,180 -27,86 -76,156 -213,305 -105,113 -136,141 -136,121 z"
       id="path12" />
    <path
       d="m 6551,6175 c -7,-116 -24,-280 -37,-365 l -16,-105 42,-190 c 23,-104 63,-246 87,-315 24,-69 49,-138 54,-155 16,-48 -59,-359 -101,-420 -18,-26 -45,-76 -61,-113 -17,-37 -34,-76 -39,-87 -19,-41 -60,-224 -75,-330 -32,-234 -37,-323 -32,-525 5,-229 22,-312 76,-373 26,-28 31,-30 54,-20 37,17 55,111 67,353 15,310 44,531 101,779 70,308 75,320 150,410 131,156 197,214 300,264 107,52 122,66 137,117 6,19 47,142 91,274 l 81,239 v 120 c 0,66 -3,118 -6,114 -4,-3 -22,-43 -41,-89 -29,-67 -38,-107 -49,-213 -31,-284 -67,-357 -228,-465 -54,-37 -120,-86 -146,-108 -54,-47 -71,-50 -115,-23 -27,16 -38,39 -102,232 -88,260 -110,377 -177,904 -8,61 -14,101 -15,90 z"
       id="path14" />
    <path
       d="m 6311,5498 c -1,-34 -28,-142 -46,-190 -20,-51 -156,-250 -235,-342 -36,-42 -106,-114 -156,-161 l -91,-84 47,-93 c 48,-94 63,-130 210,-513 l 80,-211 5,-124 c 3,-68 7,-125 9,-127 2,-2 9,47 16,109 18,164 68,308 155,443 17,28 49,76 69,108 33,52 35,57 14,46 -49,-26 -120,-95 -165,-161 -25,-37 -48,-68 -49,-68 -8,0 -43,132 -38,144 3,9 2,16 -4,16 -13,0 -54,89 -48,105 3,8 -2,19 -10,26 -25,20 -46,80 -34,94 15,18 100,53 161,66 l 52,11 -65,37 c -113,64 -111,61 -93,111 8,24 19,48 24,54 5,6 11,28 15,49 4,21 14,41 22,44 8,3 13,12 10,19 -5,12 61,212 86,261 10,21 15,15 59,-78 47,-97 99,-178 86,-134 -41,140 -59,235 -68,375 -10,166 -15,213 -18,168 z"
       id="path16" />
    <path
       d="m 4957,4874 c -4,-4 -7,-23 -7,-42 0,-26 10,-46 43,-82 100,-115 206,-322 229,-449 12,-64 12,-64 -60,-171 -23,-35 -51,-95 -63,-133 -11,-38 -34,-106 -51,-151 -38,-99 -89,-153 -201,-211 -76,-39 -78,-41 -93,-93 -9,-30 -14,-55 -12,-58 3,-2 46,14 96,36 107,46 220,118 258,163 41,48 84,147 84,191 0,64 21,168 43,211 11,22 37,65 57,95 21,30 41,74 44,97 7,37 2,52 -49,152 -86,170 -149,261 -305,444 -3,4 -9,4 -13,1 z"
       id="path18" />
    <path
       d="m 6766,4568 c -3,-10 -8,-25 -11,-33 -2,-9 22,-47 57,-90 117,-140 214,-327 239,-460 11,-62 0,-101 -34,-114 -31,-12 -86,-76 -108,-125 -10,-23 -22,-79 -27,-126 -12,-104 -43,-189 -84,-229 -17,-17 -65,-48 -107,-70 -71,-37 -78,-44 -99,-92 -12,-29 -20,-54 -18,-56 8,-8 189,77 251,117 118,77 171,161 185,294 16,147 28,181 109,301 26,38 41,71 41,91 0,31 -52,140 -128,271 -48,82 -137,201 -211,283 -40,45 -50,52 -55,38 z"
       id="path20" />
    <path
       d="m 7830,4320 c -42,-4 -100,-15 -131,-23 l -56,-17 -9,-98 -9,-99 50,28 c 53,30 216,91 275,104 23,5 47,22 70,48 60,69 61,67 -32,66 -46,-1 -117,-5 -158,-9 z"
       id="path22" />
    <path
       d="m 8245,3999 c -22,-6 -76,-27 -120,-49 -125,-60 -302,-230 -455,-435 -93,-125 -117,-170 -130,-245 -6,-36 -14,-76 -17,-90 -4,-18 22,4 94,80 55,58 124,134 154,170 149,180 350,359 584,523 l 60,42 -30,6 c -43,9 -94,8 -140,-2 z"
       id="path24" />
    <path
       d="m 8247,3858 c -15,-11 -27,-26 -27,-33 0,-20 52,-157 57,-151 6,5 7,195 2,201 -2,2 -16,-6 -32,-17 z"
       id="path26" />
    <path
       d="m 4024,3610 c -36,-85 -68,-180 -63,-184 26,-20 101,-67 103,-64 1,1 0,75 -3,163 l -6,160 z"
       id="path28" />
    <path
       d="m 4221,3454 c -8,-21 -22,-69 -31,-106 l -18,-66 61,-59 60,-58 -7,35 c -4,19 -13,76 -22,125 -8,50 -18,108 -22,129 l -7,39 z"
       id="path30" />
  </g>
  <g
     id="layer102"
     fill="#000000"
     stroke="none"
     transform="translate(-1689.1556,-1547)" />
</svg>
